<svg xmlns="http://www.w3.org/2000/svg" xmlns:xlink="http://www.w3.org/1999/xlink" x="0px" y="0px" viewBox="0 0 448 448" style="enable-background:new 0 0 448 448;" xml:space="preserve">
<g>
	<g>
		<path d="M424,384h-8.888l-31.2-264.936c-0.473-4.016-3.868-7.047-7.912-7.064h-56V80h53.4    c24.114,0.025,45.528-15.411,53.128-38.296l5.064-15.2c1.383-4.196-0.898-8.719-5.094-10.102    c-0.806-0.266-1.649-0.401-2.498-0.402h-48c-4.418,0-8,3.582-8,8s3.582,8,8,8h36.904l-1.552,4.648    C405.92,52.993,390.624,64.017,373.4,64H74.6c-17.217,0.003-32.504-11.011-37.952-27.344L35.096,32H304c4.418,0,8-3.582,8-8    s-3.582-8-8-8H24c-4.418-0.001-8.001,3.58-8.002,7.998c0,0.86,0.138,1.714,0.41,2.53l5.064,15.2    C29.08,64.604,50.492,80.028,74.6,80H128v32H72c-4.056,0.001-7.469,3.036-7.944,7.064l-9.408,80    c-0.588,4.379,2.485,8.406,6.864,8.993c4.379,0.588,8.405-2.485,8.993-6.864c0.012-0.086,0.022-0.171,0.03-0.257l4.8-40.936H344    c4.418,0,8-3.582,8-8s-3.582-8-8-8H77.232l1.88-16h289.776L399,384H49l17.768-151.064c0.516-4.387-2.621-8.362-7.008-8.88    c-4.387-0.516-8.362,2.621-8.88,7.008L32.888,384H24c-13.255,0-24,10.745-24,24s10.745,24,24,24h360c4.418,0,8-3.582,8-8    s-3.582-8-8-8H24c-4.418,0-8-3.582-8-8s3.582-8,8-8h400c4.418,0,8,3.582,8,8s-3.582,8-8,8h-8c-4.418,0-8,3.582-8,8s3.582,8,8,8h8    c13.255,0,24-10.745,24-24S437.255,384,424,384z M304,112H144V80h160V112z"></path>
	</g>
</g>
<g>
	<g>
		<path d="M307.2,243.152c-1.416-4.185-5.957-6.43-10.142-5.014c-4.185,1.416-6.43,5.957-5.014,10.142    c0.012,0.035,0.024,0.069,0.036,0.103c13.067,37.556-6.785,78.594-44.341,91.661c-37.556,13.067-78.594-6.785-91.661-44.341    c-13.067-37.556,6.785-78.594,44.341-91.661c15.281-5.317,31.907-5.332,47.198-0.042c4.165,1.473,8.736-0.709,10.21-4.874    c1.473-4.165-0.709-8.737-4.874-10.21c-0.034-0.012-0.069-0.024-0.103-0.036v-0.04c-45.927-15.898-96.047,8.446-111.944,54.373    c-15.898,45.927,8.446,96.047,54.373,111.944c45.927,15.898,96.047-8.446,111.944-54.373    C313.683,282.116,313.676,261.816,307.2,243.152z"></path>
	</g>
</g>
<g>
	<g>
		<path d="M292.128,216.296c-3.715-4.547-7.877-8.709-12.424-12.424c-3.585-2.583-8.585-1.77-11.167,1.815    c-2.364,3.281-1.907,7.81,1.063,10.553c1.84,1.512,3.632,3.128,5.344,4.84c1.712,1.712,3.304,3.52,4.816,5.36    c2.879,3.352,7.929,3.735,11.281,0.857C294.286,224.51,294.765,219.664,292.128,216.296z"></path>
	</g>
</g>
<g>
	<g>
		<path d="M224,216c-30.913,0.035-55.965,25.087-56,56c0,4.418,3.582,8,8,8s8-3.582,8-8c0-22.091,17.909-40,40-40    c22.091,0,40,17.909,40,40c0,4.418,3.582,8,8,8s8-3.582,8-8C279.965,241.087,254.913,216.035,224,216z"></path>
	</g>
</g>
<g>
	<g>
		<path d="M224,248c-4.418,0-8,3.582-8,8v56c0,4.418,3.582,8,8,8s8-3.582,8-8v-56C232,251.582,228.418,248,224,248z"></path>
	</g>
</g>
<g>
	<g>
		<path d="M344,16h-8c-4.418,0-8,3.582-8,8s3.582,8,8,8h8c4.418,0,8-3.582,8-8S348.418,16,344,16z"></path>
	</g>
</g>
<g>
	<g>
		<path d="M368,352h-8c-4.418,0-8,3.582-8,8s3.582,8,8,8h8c4.418,0,8-3.582,8-8S372.418,352,368,352z"></path>
	</g>
</g>
<g>
	<g>
		<path d="M328,352h-8c-4.418,0-8,3.582-8,8s3.582,8,8,8h8c4.418,0,8-3.582,8-8S332.418,352,328,352z"></path>
	</g>
</g>
<g>
</g>
<g>
</g>
<g>
</g>
<g>
</g>
<g>
</g>
<g>
</g>
<g>
</g>
<g>
</g>
<g>
</g>
<g>
</g>
<g>
</g>
<g>
</g>
<g>
</g>
<g>
</g>
<g>
</g>
</svg>