<svg xmlns="http://www.w3.org/2000/svg" xmlns:xlink="http://www.w3.org/1999/xlink" x="0px" y="0px" viewBox="0 0 479.964 479.964" style="enable-background:new 0 0 479.964 479.964;" xml:space="preserve">
<g>
	<g>
		<path d="M411.621,84.844l-168-84c-2.251-1.125-4.901-1.125-7.152,0L22.357,107.86c-12.822,6.296-18.112,21.794-11.816,34.616    c5.377,10.949,17.672,16.653,29.504,13.688v315.8c0,4.418,3.582,8,8,8s8-3.582,8-8V148.908l19.576-9.744    c3.954-1.975,5.559-6.782,3.584-10.736s-6.782-5.559-10.736-3.584L38.357,139.86c-4.877,2.448-10.814,0.479-13.262-4.398    c-0.692-1.378-1.051-2.9-1.05-4.442c-0.012-3.751,2.111-7.183,5.472-8.848L240.045,16.908l164.424,82.256    c3.954,1.975,8.761,0.37,10.736-3.584C417.18,91.625,415.575,86.819,411.621,84.844z"></path>
	</g>
</g>
<g>
	<g>
		<path d="M457.733,107.86l-22.112-11.056c-3.954-1.975-8.761-0.37-10.736,3.584c-1.975,3.954-0.37,8.761,3.584,10.736    l22.104,11.048c3.361,1.665,5.484,5.097,5.472,8.848c-0.017,5.457-4.454,9.867-9.91,9.85c-1.529-0.005-3.036-0.364-4.402-1.05    L243.621,40.804c-2.251-1.125-4.901-1.125-7.152,0l-144,72c-3.954,1.975-5.559,6.782-3.584,10.736    c1.975,3.954,6.782,5.559,10.736,3.584l140.424-70.216l184,92v323.056c0,4.418,3.582,8,8,8s8-3.582,8-8v-315.8    c13.884,3.396,27.892-5.106,31.288-18.99C474.206,125.425,468.559,113.253,457.733,107.86z"></path>
	</g>
</g>
<g>
	<g>
		<path d="M392.045,167.964h-24c-4.418,0-8,3.582-8,8s3.582,8,8,8h16v16h-288v-16h216c4.418,0,8-3.582,8-8s-3.582-8-8-8h-224    c-4.418,0-8,3.582-8,8v32c0,4.418,3.582,8,8,8h8v256c0,4.418,3.582,8,8,8s8-3.582,8-8v-128h256v128c0,4.418,3.582,8,8,8    s8-3.582,8-8v-256h8c4.418,0,8-3.582,8-8v-32C400.045,171.545,396.463,167.964,392.045,167.964z M368.045,327.964h-256v-112h256    V327.964z"></path>
	</g>
</g>
<g>
	<g>
		<path d="M344.045,167.964h-8c-4.418,0-8,3.582-8,8s3.582,8,8,8h8c4.418,0,8-3.582,8-8S348.463,167.964,344.045,167.964z"></path>
	</g>
</g>
<g>
	<g>
		<path d="M344.045,231.964h-208c-4.418,0-8,3.582-8,8s3.582,8,8,8h208c4.418,0,8-3.582,8-8S348.463,231.964,344.045,231.964z"></path>
	</g>
</g>
<g>
	<g>
		<path d="M344.045,263.964h-208c-4.418,0-8,3.582-8,8s3.582,8,8,8h208c4.418,0,8-3.582,8-8S348.463,263.964,344.045,263.964z"></path>
	</g>
</g>
<g>
	<g>
		<path d="M344.045,295.964h-208c-4.418,0-8,3.582-8,8s3.582,8,8,8h208c4.418,0,8-3.582,8-8S348.463,295.964,344.045,295.964z"></path>
	</g>
</g>
<g>
	<g>
		<path d="M336.045,367.964h-48c-4.418,0-8,3.582-8,8v40h-88c-4.418,0-8,3.582-8,8v48c0,4.418,3.582,8,8,8h144c4.418,0,8-3.582,8-8    v-96C344.045,371.545,340.463,367.964,336.045,367.964z M232.045,463.964h-32v-32h32V463.964z M280.045,463.964h-32v-32h32    V463.964z M328.045,463.964h-32v-32h32V463.964z M328.045,415.964h-32v-32h32V415.964z"></path>
	</g>
</g>
<g>
</g>
<g>
</g>
<g>
</g>
<g>
</g>
<g>
</g>
<g>
</g>
<g>
</g>
<g>
</g>
<g>
</g>
<g>
</g>
<g>
</g>
<g>
</g>
<g>
</g>
<g>
</g>
<g>
</g>
</svg>