<svg xmlns="http://www.w3.org/2000/svg" xmlns:xlink="http://www.w3.org/1999/xlink" x="0px" y="0px" viewBox="0 0 480 480" style="enable-background:new 0 0 480 480;" xml:space="preserve">
<g>
	<g>
		<path d="M472,268.049h-17.056l-13.72-96H448c4.418,0,8-3.582,8-8v-32c0-4.418-3.582-8-8-8h-40.656    c-3.583-23.547-22.542-41.748-46.216-44.368L328,75.992V52.049c0-4.418-3.582-8-8-8h-8v-24c0-2.122-0.844-4.156-2.344-5.656l-8-8    c-3.178-3.07-8.242-2.982-11.312,0.196c-2.994,3.1-2.994,8.016,0,11.116L296,23.361v20.688h-8c-4.418,0-8,3.582-8,8v18.616    l-23.12-2.568c-4.391-0.486-8.345,2.68-8.831,7.071C248.016,75.46,248,75.754,248,76.049v224H40c-4.418,0-8,3.582-8,8v80    c0,4.418,3.582,8,8,8s8-3.582,8-8v-72h208c4.418,0,8-3.582,8-8v-168h16v16c0,13.255,10.745,24,24,24s24-10.745,24-24v-16h112v16    h-88c-4.418,0-8,3.582-8,8v24c0,4.418,3.582,8,8,8s8-3.582,8-8v-16h65.056l13.72,96H360v-48c0-4.418-3.582-8-8-8s-8,3.582-8,8v56    c0,4.418,3.582,8,8,8h72v40c0,4.418,3.582,8,8,8h32v56c0,13.255-10.745,24-24,24h-8.64c-3.992-27.517-27.555-47.947-55.36-48h-56    c-4.418,0-8,3.582-8,8s3.582,8,8,8h56c22.091,0,40,17.909,40,40c0,22.091-17.909,40-40,40c-22.091,0-40-17.909-40-40    c0-4.418-3.582-8-8-8H215.36c-3.992-27.517-27.555-47.947-55.36-48h-48c-4.418,0-8,3.582-8,8s3.582,8,8,8h48    c22.091,0,40,17.909,40,40c0,22.091-17.909,40-40,40s-40-17.909-40-40c0-4.418-3.582-8-8-8H16v-16c0-4.418-3.582-8-8-8    s-8,3.582-8,8v24c0,4.418,3.582,8,8,8h96.568c4.53,30.594,33.004,51.724,63.599,47.193c24.411-3.615,43.579-22.782,47.193-47.193    h105.208c4.53,30.594,33.004,51.724,63.599,47.193c24.411-3.615,43.579-22.782,47.193-47.193H440c22.08-0.026,39.974-17.92,40-40    v-112C480,271.63,476.418,268.049,472,268.049z M280,124.049h-16V84.984l16,1.784V124.049z M312,156.049c0,4.418-3.582,8-8,8    s-8-3.582-8-8v-96h16V156.049z M328,124.049V92.096l31.36,3.488c15.562,1.731,28.295,13.175,31.672,28.464H328z M464,316.049h-24    v-32h24V316.049z"></path>
	</g>
</g>
<g>
	<g>
		<path d="M392,300.049h-8c-4.418,0-8,3.582-8,8s3.582,8,8,8h8c4.418,0,8-3.582,8-8S396.418,300.049,392,300.049z"></path>
	</g>
</g>
<g>
	<g>
		<path d="M288,364.049h-8c-4.418,0-8,3.582-8,8s3.582,8,8,8h8c4.418,0,8-3.582,8-8S292.418,364.049,288,364.049z"></path>
	</g>
</g>
<g>
	<g>
		<path d="M80,364.049h-8c-4.418,0-8,3.582-8,8s3.582,8,8,8h8c4.418,0,8-3.582,8-8S84.418,364.049,80,364.049z"></path>
	</g>
</g>
<g>
	<g>
		<path d="M256,332.049H112c-4.418,0-8,3.582-8,8s3.582,8,8,8h144c4.418,0,8-3.582,8-8S260.418,332.049,256,332.049z"></path>
	</g>
</g>
<g>
	<g>
		<path d="M376,396.049c-13.255,0-24,10.745-24,24s10.745,24,24,24s24-10.745,24-24S389.255,396.049,376,396.049z M376,428.049    c-4.418,0-8-3.582-8-8s3.582-8,8-8s8,3.582,8,8S380.418,428.049,376,428.049z"></path>
	</g>
</g>
<g>
	<g>
		<path d="M160,396.049c-13.255,0-24,10.745-24,24s10.745,24,24,24s24-10.745,24-24S173.255,396.049,160,396.049z M160,428.049    c-4.418,0-8-3.582-8-8s3.582-8,8-8s8,3.582,8,8S164.418,428.049,160,428.049z"></path>
	</g>
</g>
<g>
</g>
<g>
</g>
<g>
</g>
<g>
</g>
<g>
</g>
<g>
</g>
<g>
</g>
<g>
</g>
<g>
</g>
<g>
</g>
<g>
</g>
<g>
</g>
<g>
</g>
<g>
</g>
<g>
</g>
</svg>