<svg xmlns="http://www.w3.org/2000/svg" xmlns:xlink="http://www.w3.org/1999/xlink" x="0px" y="0px" viewBox="0 0 471.698 471.698" style="enable-background:new 0 0 471.698 471.698;" xml:space="preserve">
<g>
	<g>
		<path d="M465.455,418.344l-8-8c-3.178-3.07-8.242-2.982-11.312,0.196c-2.995,3.1-2.995,8.016,0,11.116l8,8    c3.178,3.07,8.242,2.982,11.312-0.196C468.45,426.36,468.45,421.444,465.455,418.344z"></path>
	</g>
</g>
<g>
	<g>
		<path d="M437.455,390.344c-18.584-18.588-48.718-18.591-67.305-0.007c-0.002,0.002-0.005,0.005-0.007,0.007    c-12.505,11.937-32.183,11.937-44.688,0c-18.584-18.588-48.718-18.591-67.305-0.007c-0.002,0.002-0.005,0.005-0.007,0.007    c-12.505,11.937-32.183,11.937-44.688,0c-18.584-18.588-48.718-18.591-67.305-0.007c-0.002,0.002-0.005,0.005-0.007,0.007    c-12.505,11.937-32.183,11.937-44.688,0c-18.584-18.588-48.718-18.591-67.305-0.007c-0.002,0.002-0.005,0.005-0.007,0.007l-28,28    c-3.124,3.125-3.123,8.19,0.002,11.314c1.5,1.499,3.534,2.342,5.654,2.342c2.122,0,4.156-0.844,5.656-2.344l28-28    c12.505-11.937,32.183-11.937,44.688,0c18.584,18.588,48.718,18.591,67.305,0.007c0.002-0.002,0.005-0.004,0.007-0.007    c12.505-11.937,32.183-11.937,44.688,0c18.584,18.588,48.718,18.591,67.305,0.007c0.002-0.002,0.005-0.005,0.007-0.007    c12.505-11.937,32.183-11.937,44.688,0c18.584,18.588,48.718,18.591,67.305,0.007c0.002-0.002,0.005-0.005,0.007-0.007    c12.505-11.937,32.183-11.937,44.688,0c3.178,3.07,8.242,2.982,11.312-0.196C440.45,398.36,440.45,393.444,437.455,390.344z"></path>
	</g>
</g>
<g>
	<g>
		<path d="M415.641,236.524c-1.287-0.643-2.629-1.169-4.01-1.572l-7.96-2.32c0-0.224,0.128-0.408,0.128-0.632V128    c0-13.255-10.745-24-24-24h-8c-4.418,0-8,3.582-8,8s3.582,8,8,8h8c4.418,0,8,3.582,8,8v100l-149.76-43.68    c-1.462-0.432-3.018-0.432-4.48,0L83.799,228V128c0-4.418,3.582-8,8-8h248c4.418,0,8-3.582,8-8s-3.582-8-8-8h-72V72h16    c13.255,0,24-10.745,24-24s-10.745-24-24-24h-24V8c0-4.418-3.582-8-8-8c-4.418,0-8,3.582-8,8v24c0,4.418,3.582,8,8,8h32    c4.418,0,8,3.582,8,8s-3.582,8-8,8h-96c-4.418,0-8-3.582-8-8s3.582-8,8-8h8c4.418,0,8-3.582,8-8s-3.582-8-8-8h-8    c-13.255,0-24,10.745-24,24s10.745,24,24,24h16v32h-112c-13.255,0-24,10.745-24,24v104c0,0.224,0.112,0.416,0.128,0.632    l-7.96,2.32c-12.726,3.708-20.036,17.03-16.328,29.755c0.404,1.385,0.931,2.73,1.576,4.021l55.424,110.848    c1.975,3.954,6.782,5.559,10.736,3.584c3.954-1.975,5.559-6.782,3.584-10.736L59.527,261.6c-1.978-3.951-0.379-8.757,3.571-10.735    c0.433-0.217,0.884-0.394,1.349-0.529l163.352-47.672V224c0,4.418,3.582,8,8,8s8-3.582,8-8v-21.336l64,18.672V272    c0,4.418,3.582,8,8,8s8-3.582,8-8v-46l83.36,24.312c4.241,1.239,6.674,5.682,5.435,9.923c-0.134,0.459-0.309,0.905-0.523,1.333    l-55.432,110.856c-1.975,3.954-0.37,8.761,3.584,10.736c3.954,1.975,8.761,0.37,10.736-3.584l55.424-110.856    C432.308,256.863,427.498,242.448,415.641,236.524z M219.799,72h32v32h-32V72z"></path>
	</g>
</g>
<g>
	<g>
		<path d="M235.799,248c-4.418,0-8,3.582-8,8v120c0,4.418,3.582,8,8,8s8-3.582,8-8V256C243.799,251.582,240.217,248,235.799,248z"></path>
	</g>
</g>
<g>
	<g>
		<path d="M219.799,0c-4.418,0-8,3.582-8,8v24c0,4.418,3.582,8,8,8s8-3.582,8-8V8C227.799,3.582,224.217,0,219.799,0z"></path>
	</g>
</g>
<g>
	<g>
		<path d="M235.799,136c-4.418,0-8,3.582-8,8v16c0,4.418,3.582,8,8,8s8-3.582,8-8v-16C243.799,139.582,240.217,136,235.799,136z"></path>
	</g>
</g>
<g>
	<g>
		<path d="M275.799,136c-4.418,0-8,3.582-8,8v32c0,4.418,3.582,8,8,8s8-3.582,8-8v-32C283.799,139.582,280.217,136,275.799,136z"></path>
	</g>
</g>
<g>
	<g>
		<path d="M315.799,136c-4.418,0-8,3.582-8,8v40c0,4.418,3.582,8,8,8s8-3.582,8-8v-40C323.799,139.582,320.217,136,315.799,136z"></path>
	</g>
</g>
<g>
	<g>
		<path d="M355.799,136c-4.418,0-8,3.582-8,8v48c0,4.418,3.582,8,8,8s8-3.582,8-8v-48C363.799,139.582,360.217,136,355.799,136z"></path>
	</g>
</g>
<g>
	<g>
		<path d="M195.799,136c-4.418,0-8,3.582-8,8v32c0,4.418,3.582,8,8,8s8-3.582,8-8v-32C203.799,139.582,200.217,136,195.799,136z"></path>
	</g>
</g>
<g>
	<g>
		<path d="M155.799,136c-4.418,0-8,3.582-8,8v40c0,4.418,3.582,8,8,8s8-3.582,8-8v-40C163.799,139.582,160.217,136,155.799,136z"></path>
	</g>
</g>
<g>
	<g>
		<path d="M115.799,136c-4.418,0-8,3.582-8,8v48c0,4.418,3.582,8,8,8s8-3.582,8-8v-48C123.799,139.582,120.217,136,115.799,136z"></path>
	</g>
</g>
<g>
	<g>
		<path d="M347.799,312c0-4.418-3.582-8-8-8s-8,3.582-8,8c0.142,5.856-2.926,11.321-8,14.248V304c0-4.418-3.582-8-8-8s-8,3.582-8,8    v22.272c-5.097-2.939-8.169-8.439-8-14.32c-0.013-4.418-3.606-7.989-8.024-7.976c-4.418,0.013-7.989,3.606-7.976,8.024    c-0.348,14.755,9.649,27.752,24,31.2v8.8c0,4.418,3.582,8,8,8s8-3.582,8-8v-8.8C338.15,339.752,348.147,326.755,347.799,312z"></path>
	</g>
</g>
<g>
	<g>
		<path d="M25.259,449.944c-3.1-2.994-8.016-2.994-11.116,0l-8,8c-3.124,3.125-3.123,8.19,0.002,11.314    c1.5,1.499,3.534,2.342,5.654,2.342c2.122,0,4.156-0.844,5.656-2.344l8-8C28.525,458.078,28.437,453.013,25.259,449.944z"></path>
	</g>
</g>
<g>
	<g>
		<path d="M465.651,458.14c-0.064-0.066-0.129-0.132-0.196-0.196l-28-28c-18.584-18.588-48.718-18.591-67.305-0.007    c-0.002,0.002-0.005,0.005-0.007,0.007c-12.505,11.937-32.183,11.937-44.688,0c-18.584-18.588-48.718-18.591-67.305-0.007    c-0.002,0.002-0.005,0.005-0.007,0.007c-12.505,11.937-32.183,11.937-44.688,0c-18.584-18.588-48.718-18.591-67.305-0.007    c-0.002,0.002-0.005,0.004-0.007,0.007c-12.505,11.937-32.183,11.937-44.688,0c-18.584-18.588-48.718-18.591-67.305-0.007    c-0.002,0.002-0.005,0.004-0.007,0.007c-3.178,3.07-3.266,8.134-0.196,11.312c3.07,3.178,8.134,3.266,11.312,0.196    c0.067-0.064,0.132-0.13,0.196-0.196c12.505-11.937,32.183-11.937,44.688,0c18.59,18.581,48.722,18.581,67.312,0    c12.505-11.937,32.183-11.937,44.688,0c18.59,18.582,48.722,18.582,67.312,0c12.505-11.937,32.183-11.937,44.688,0    c18.59,18.582,48.722,18.582,67.312,0c12.505-11.937,32.183-11.937,44.688,0l28,28c3.07,3.178,8.134,3.266,11.312,0.196    C468.633,466.382,468.721,461.318,465.651,458.14z"></path>
	</g>
</g>
<g>
</g>
<g>
</g>
<g>
</g>
<g>
</g>
<g>
</g>
<g>
</g>
<g>
</g>
<g>
</g>
<g>
</g>
<g>
</g>
<g>
</g>
<g>
</g>
<g>
</g>
<g>
</g>
<g>
</g>
</svg>