<svg xmlns="http://www.w3.org/2000/svg" xmlns:xlink="http://www.w3.org/1999/xlink" x="0px" y="0px" viewBox="0 0 480 480" style="enable-background:new 0 0 480 480;" xml:space="preserve">
<g>
	<g>
		<path d="M359.994,344c-4.418,0-8,3.582-8,8v16c0,4.418,3.582,8,8,8s8-3.582,8-8v-16C367.994,347.582,364.412,344,359.994,344z"></path>
	</g>
</g>
<g>
	<g>
		<path d="M327.994,360c-4.418,0-8,3.582-8,8v16c0,4.418,3.582,8,8,8s8-3.582,8-8v-16C335.994,363.582,332.412,360,327.994,360z"></path>
	</g>
</g>
<g>
	<g>
		<path d="M206.051,193.946c-0.001-0.001-0.001-0.001-0.002-0.002c-3.124-3.123-8.188-3.123-11.312,0    c-3.125,3.124-3.125,8.189-0.002,11.314c3.124,3.125,8.189,3.125,11.314,0.002C209.174,202.136,209.175,197.07,206.051,193.946z"></path>
	</g>
</g>
<g>
	<g>
		<path d="M285.251,114.742c-3.124-3.125-8.189-3.125-11.314-0.002c-3.125,3.124-3.125,8.189-0.002,11.314    c0.001,0.001,0.001,0.001,0.002,0.002c3.124,3.123,8.188,3.123,11.312,0C288.374,122.932,288.375,117.867,285.251,114.742z"></path>
	</g>
</g>
<g>
	<g>
		<path d="M206.05,114.744c-3.124-3.125-8.189-3.125-11.314-0.002c-3.125,3.124-3.125,8.189-0.002,11.314    c3.124,3.125,8.189,3.125,11.314,0.002c0.001-0.001,0.001-0.001,0.002-0.002C209.173,122.932,209.173,117.868,206.05,114.744z"></path>
	</g>
</g>
<g>
	<g>
		<path d="M285.253,193.944c-3.124-3.125-8.189-3.125-11.314-0.002c-0.001,0.001-0.001,0.001-0.002,0.002    c-3.123,3.124-3.123,8.188,0,11.312c3.124,3.125,8.189,3.125,11.314,0.002C288.376,202.134,288.377,197.069,285.253,193.944z"></path>
	</g>
</g>
<g>
	<g>
		<circle cx="183.994" cy="160" r="8"></circle>
	</g>
</g>
<g>
	<g>
		<circle cx="295.994" cy="160" r="8"></circle>
	</g>
</g>
<g>
	<g>
		<circle cx="239.994" cy="104" r="8"></circle>
	</g>
</g>
<g>
	<g>
		<circle cx="239.994" cy="216" r="8"></circle>
	</g>
</g>
<g>
	<g>
		<path d="M261.65,170.344l-13.656-13.656V136c0-4.418-3.582-8-8-8s-8,3.582-8,8v24c0,2.122,0.844,4.156,2.344,5.656l16,16    c1.5,1.5,3.534,2.344,5.656,2.344c4.418-0.001,7.999-3.583,7.998-8.002C263.991,173.878,263.149,171.844,261.65,170.344z"></path>
	</g>
</g>
<g>
	<g>
		<path d="M239.994,16c-4.418,0-8,3.582-8,8v40c0,4.418,3.582,8,8,8s8-3.582,8-8V24C247.994,19.582,244.412,16,239.994,16z"></path>
	</g>
</g>
<g>
	<g>
		<path d="M207.994,0c-4.418,0-8,3.582-8,8v8c0,4.418,3.582,8,8,8s8-3.582,8-8V8C215.994,3.582,212.412,0,207.994,0z"></path>
	</g>
</g>
<g>
	<g>
		<path d="M475.994,247.4l-68-39.4l68-39.392c2.473-1.428,3.997-4.065,4-6.92c-0.003-2.855-1.527-5.492-4-6.92l-32-18.536    c-3.891-2.094-8.742-0.637-10.836,3.254c-2.005,3.726-0.762,8.369,2.836,10.594l20,11.608l-64,37.072l-51.064-29.6    c-1.628-0.915-3.528-1.219-5.36-0.856c0.24-2.752,0.424-5.52,0.424-8.336c0.084-26.153-10.563-51.195-29.456-69.28l13.456-7.76    l62.176,36c3.729,2.37,8.673,1.269,11.043-2.459c2.37-3.729,1.269-8.673-2.459-11.043c-0.19-0.121-0.384-0.233-0.584-0.337    l-66.176-38.32c-2.475-1.429-5.525-1.429-8,0L293.122,80c-4.181-2.767-8.57-5.206-13.128-7.296V64c0-4.418-3.582-8-8-8    s-8,3.582-8,8v14c-0.002,3.296,2.018,6.256,5.088,7.456c6.665,2.623,12.952,6.12,18.696,10.4l0.168,0.128    c35.366,26.483,42.567,76.622,16.084,111.988s-76.622,42.567-111.988,16.084c-20.178-15.11-32.054-38.847-32.048-64.056    c0.059-31.258,18.258-59.64,46.64-72.736c1.4-0.648,2.832-1.248,4.28-1.816c3.064-1.201,5.08-4.157,5.08-7.448V40    c0-4.418-3.582-8-8-8s-8,3.582-8,8v32.712h-0.048c-4.523,2.085-8.875,4.522-13.016,7.288l-22.936-13.232    c-2.475-1.429-5.525-1.429-8,0l-152,88c-3.822,2.217-5.123,7.112-2.906,10.934c0.699,1.205,1.701,2.207,2.906,2.906l68,39.392    l-68,39.392c-3.822,2.217-5.123,7.112-2.906,10.934c0.699,1.205,1.701,2.207,2.906,2.906l76,44V384    c0.003,2.855,1.527,5.492,4,6.92l152,88c0.184,0.112,0.4,0.152,0.592,0.248c0.192,0.096,0.44,0.192,0.672,0.28    c1.755,0.736,3.733,0.736,5.488,0c0.232-0.088,0.448-0.176,0.672-0.28s0.408-0.136,0.592-0.248l152-88    c2.467-1.432,3.984-4.068,3.984-6.92v-78.76l76-44c3.822-2.217,5.123-7.112,2.906-10.934    C478.2,249.101,477.199,248.099,475.994,247.4z M23.994,161.688l136-78.76l13.6,7.864c-18.854,18.094-29.539,43.077-29.6,69.208    c0,2.816,0.184,5.6,0.424,8.336c-0.769-0.171-1.559-0.228-2.344-0.168c-1.063,0.139-2.088,0.487-3.016,1.024L87.994,198.76    L23.994,161.688z M23.994,254.312l64-37.072l78.904,45.68c3.729,2.37,8.673,1.269,11.043-2.459s1.269-8.673-2.459-11.043    c-0.19-0.121-0.384-0.233-0.584-0.337L103.994,208l42.968-24.872c12.703,51.398,64.666,82.767,116.064,70.064    c34.55-8.539,61.525-35.514,70.064-70.064L375.994,208l-136,78.76l-37.448-21.68c-3.915-2.048-8.749-0.534-10.797,3.38    c-1.927,3.684-0.711,8.229,2.797,10.459L224.034,296l-64,37.072L23.994,254.312z M383.994,379.392l-136,78.736V440    c0-4.418-3.582-8-8-8s-8,3.582-8,8v18.128l-136-78.736v-64.888l60,34.728c2.475,1.429,5.525,1.429,8,0l68-39.36V408    c0,4.418,3.582,8,8,8s8-3.582,8-8v-98.128l68,39.36c2.475,1.429,5.525,1.429,8,0l60-34.728V379.392z M319.994,333.072l-64-37.072    l136-78.76l64,37.072L319.994,333.072z"></path>
	</g>
</g>
<g>
	<g>
		<path d="M419.994,122.344l-8-4.632c-3.915-2.048-8.749-0.534-10.797,3.381c-1.927,3.684-0.711,8.229,2.797,10.459l8,4.632    c3.915,2.048,8.749,0.534,10.797-3.38C424.717,129.12,423.502,124.574,419.994,122.344z"></path>
	</g>
</g>
<g>
	<g>
		<path d="M271.994,8c-4.418,0-8,3.582-8,8v16c0,4.418,3.582,8,8,8s8-3.582,8-8V16C279.994,11.582,276.412,8,271.994,8z"></path>
	</g>
</g>
<g>
</g>
<g>
</g>
<g>
</g>
<g>
</g>
<g>
</g>
<g>
</g>
<g>
</g>
<g>
</g>
<g>
</g>
<g>
</g>
<g>
</g>
<g>
</g>
<g>
</g>
<g>
</g>
<g>
</g>
</svg>