<svg xmlns="http://www.w3.org/2000/svg" xmlns:xlink="http://www.w3.org/1999/xlink" x="0px" y="0px" viewBox="0 0 480.004 480.004" style="enable-background:new 0 0 480.004 480.004;" xml:space="preserve">
<g>
	<g>
		<path d="M424.002,400.004h-8v-304c0-4.418-3.582-8-8-8h-72.424c-0.87-11.089-3.681-21.939-8.304-32.056    c-1.847-4.016-6.6-5.775-10.616-3.928s-5.775,6.6-3.928,10.616c4.819,10.462,7.301,21.849,7.272,33.368c0,44.183-35.817,80-80,80    s-80-35.817-80-80s35.817-80,80-80c12.643-0.042,25.112,2.948,36.36,8.72c3.935,2.01,8.754,0.451,10.764-3.484    c2.01-3.935,0.45-8.754-3.484-10.764c-47.245-24.062-105.05-5.268-129.112,41.977c-5.644,11.083-9.081,23.157-10.12,35.551H72.002    c-4.418,0-8,3.582-8,8v184c0,4.418,3.582,8,8,8s8-3.582,8-8v-176h64.408c4.324,52.798,50.63,92.095,103.429,87.771    c46.796-3.832,83.939-40.976,87.771-87.771h64.392v296h-64v-40c0-4.418-3.582-8-8-8s-8,3.582-8,8v40h-160v-104h48v48    c0,4.418,3.582,8,8,8h48c4.418,0,8-3.582,8-8v-48h48v32c0,4.418,3.582,8,8,8s8-3.582,8-8v-32h8c4.418,0,8-3.582,8-8v-48    c0-4.418-3.582-8-8-8h-208c-4.418,0-8,3.582-8,8v48c0,4.418,3.582,8,8,8h8v104h-64v-48c0-4.418-3.582-8-8-8s-8,3.582-8,8v48h-40    c-13.255,0-24,10.745-24,24s10.745,24,24,24h16v24c0,4.418,3.582,8,8,8h32c4.418,0,8-3.582,8-8v-24h32c4.418,0,8-3.582,8-8    s-3.582-8-8-8h-96c-4.418,0-8-3.582-8-8s3.582-8,8-8h400c4.418,0,8-3.582,8-8S428.42,400.004,424.002,400.004z M272.002,248.004    h64v32h-64V248.004z M224.002,248.004h32v32h-32V248.004z M224.002,296.004h32v40h-32V296.004z M56.002,448.004h16v16h-16V448.004    z M144.002,248.004h64v32h-64V248.004z"></path>
	</g>
</g>
<g>
	<g>
		<path d="M456.002,400.004c-4.418,0-8,3.582-8,8s3.582,8,8,8s8,3.582,8,8s-3.582,8-8,8h-304c-4.418,0-8,3.582-8,8s3.582,8,8,8h240    v24c0,4.418,3.582,8,8,8h32c4.418,0,8-3.582,8-8v-24h16c13.255,0,24-10.745,24-24S469.257,400.004,456.002,400.004z     M424.002,464.004h-16v-16h16V464.004z"></path>
	</g>
</g>
<g>
	<g>
		<path d="M240.002,96.004c-4.418,0-8,3.582-8,8v16c0,4.418,3.582,8,8,8s8-3.582,8-8v-16    C248.002,99.586,244.42,96.004,240.002,96.004z"></path>
	</g>
</g>
<g>
	<g>
		<path d="M249.059,32.653c-3-0.43-6.027-0.647-9.057-0.649c-35.346,0.004-63.997,28.661-63.993,64.007    c0.004,35.346,28.661,63.997,64.007,63.993c31.814-0.004,58.796-23.376,63.337-54.864    C308.378,70.13,284.069,37.677,249.059,32.653z M287.514,102.876c-3.772,26.262-28.12,44.494-54.382,40.722    c-26.262-3.772-44.494-28.12-40.722-54.382c3.772-26.262,28.12-44.494,54.382-40.722c23.635,3.395,41.189,23.633,41.21,47.51    C287.999,98.303,287.836,100.599,287.514,102.876z"></path>
	</g>
</g>
<g>
	<g>
		<path d="M314.057,34.909c-0.003-0.003-0.005-0.006-0.008-0.009c-2.54-3.07-5.265-5.982-8.16-8.72    c-3.216-3.033-8.283-2.885-11.316,0.332s-2.885,8.283,0.332,11.316c2.422,2.281,4.699,4.713,6.816,7.28    c2.816,3.404,7.859,3.881,11.263,1.064c0,0,0,0,0,0C316.392,43.358,316.872,38.315,314.057,34.909z"></path>
	</g>
</g>
<g>
	<g>
		<path d="M240.002,64.004c-17.673,0-32,14.327-32,32c0,4.418,3.582,8,8,8s8-3.582,8-8c0-8.837,7.163-16,16-16s16,7.163,16,16    c0,4.418,3.582,8,8,8s8-3.582,8-8C272.002,78.331,257.675,64.004,240.002,64.004z"></path>
	</g>
</g>
<g>
	<g>
		<path d="M72.002,304.004c-4.418,0-8,3.582-8,8v8c0,4.418,3.582,8,8,8s8-3.582,8-8v-8C80.002,307.586,76.42,304.004,72.002,304.004    z"></path>
	</g>
</g>
<g>
</g>
<g>
</g>
<g>
</g>
<g>
</g>
<g>
</g>
<g>
</g>
<g>
</g>
<g>
</g>
<g>
</g>
<g>
</g>
<g>
</g>
<g>
</g>
<g>
</g>
<g>
</g>
<g>
</g>
</svg>