<svg xmlns="http://www.w3.org/2000/svg" xmlns:xlink="http://www.w3.org/1999/xlink" x="0px" y="0px" viewBox="0 0 496 496" style="enable-background:new 0 0 496 496;" xml:space="preserve">
<g>
	<g>
		<path d="M488,296H256v-40h24.232c21.954-0.022,39.746-17.814,39.768-39.768V71.768C319.978,49.814,302.186,32.022,280.232,32H256    V16c0-4.418-3.582-8-8-8H40c-4.418,0-8,3.582-8,8v16H8c-4.418,0-8,3.582-8,8v32c0,4.418,3.582,8,8,8s8-3.582,8-8V48h16v192H16V104    c0-4.418-3.582-8-8-8s-8,3.582-8,8v144c0,4.418,3.582,8,8,8h24v224c0,4.418,3.582,8,8,8h128c4.418,0,8-3.582,8-8s-3.582-8-8-8H48    v-24h120c4.418,0,8-3.582,8-8s-3.582-8-8-8H48V24h192v272h-40c-4.418,0-8,3.582-8,8v176c0,4.418,3.582,8,8,8h32    c4.418,0,8-3.582,8-8s-3.582-8-8-8h-24v-80h272v80H264c-4.418,0-8,3.582-8,8s3.582,8,8,8h224c4.418,0,8-3.582,8-8V304    C496,299.582,492.418,296,488,296z M256,48h16v24c0,4.418,3.582,8,8,8s8-3.582,8-8V49.408c9.562,3.294,15.985,12.286,16,22.4    v144.424c-0.015,10.113-6.438,19.106-16,22.4V152c0-4.418-3.582-8-8-8s-8,3.582-8,8v88h-16V48z M480,328h-40c-4.418,0-8,3.582-8,8    s3.582,8,8,8h40v32H208v-32h200c4.418,0,8-3.582,8-8s-3.582-8-8-8H208v-16h272V328z"></path>
	</g>
</g>
<g>
	<g>
		<path d="M216,72h-16c-4.418,0-8,3.582-8,8s3.582,8,8,8h8v104H80V88h88c4.418,0,8-3.582,8-8s-3.582-8-8-8H72c-4.418,0-8,3.582-8,8    v120c0,4.418,3.582,8,8,8h144c4.418,0,8-3.582,8-8V80C224,75.582,220.418,72,216,72z"></path>
	</g>
</g>
<g>
	<g>
		<path d="M280,96c-4.418,0-8,3.582-8,8v16c0,4.418,3.582,8,8,8s8-3.582,8-8v-16C288,99.582,284.418,96,280,96z"></path>
	</g>
</g>
<g>
	<g>
		<path d="M216,224H72.264c-4.418,0-8,3.582-8,8s3.582,8,8,8H216c4.418,0,8-3.582,8-8S220.418,224,216,224z"></path>
	</g>
</g>
<g>
	<g>
		<path d="M80,40h-8c-4.418,0-8,3.582-8,8s3.582,8,8,8h8c4.418,0,8-3.582,8-8S84.418,40,80,40z"></path>
	</g>
</g>
<g>
	<g>
		<path d="M120,40h-8c-4.418,0-8,3.582-8,8s3.582,8,8,8h8c4.418,0,8-3.582,8-8S124.418,40,120,40z"></path>
	</g>
</g>
<g>
	<g>
		<path d="M160,40h-8c-4.418,0-8,3.582-8,8s3.582,8,8,8h8c4.418,0,8-3.582,8-8S164.418,40,160,40z"></path>
	</g>
</g>
<g>
	<g>
		<path d="M88,264h-8c-4.418,0-8,3.582-8,8s3.582,8,8,8h8c4.418,0,8-3.582,8-8S92.418,264,88,264z"></path>
	</g>
</g>
<g>
	<g>
		<path d="M128,264h-8c-4.418,0-8,3.582-8,8s3.582,8,8,8h8c4.418,0,8-3.582,8-8S132.418,264,128,264z"></path>
	</g>
</g>
<g>
	<g>
		<path d="M168,264h-8c-4.418,0-8,3.582-8,8s3.582,8,8,8h8c4.418,0,8-3.582,8-8S172.418,264,168,264z"></path>
	</g>
</g>
<g>
	<g>
		<path d="M88,296h-8c-4.418,0-8,3.582-8,8s3.582,8,8,8h8c4.418,0,8-3.582,8-8S92.418,296,88,296z"></path>
	</g>
</g>
<g>
	<g>
		<path d="M128,296h-8c-4.418,0-8,3.582-8,8s3.582,8,8,8h8c4.418,0,8-3.582,8-8S132.418,296,128,296z"></path>
	</g>
</g>
<g>
	<g>
		<path d="M168,296h-8c-4.418,0-8,3.582-8,8s3.582,8,8,8h8c4.418,0,8-3.582,8-8S172.418,296,168,296z"></path>
	</g>
</g>
<g>
	<g>
		<path d="M88,328h-8c-4.418,0-8,3.582-8,8s3.582,8,8,8h8c4.418,0,8-3.582,8-8S92.418,328,88,328z"></path>
	</g>
</g>
<g>
	<g>
		<path d="M128,328h-8c-4.418,0-8,3.582-8,8s3.582,8,8,8h8c4.418,0,8-3.582,8-8S132.418,328,128,328z"></path>
	</g>
</g>
<g>
	<g>
		<path d="M168,328h-8c-4.418,0-8,3.582-8,8s3.582,8,8,8h8c4.418,0,8-3.582,8-8S172.418,328,168,328z"></path>
	</g>
</g>
<g>
	<g>
		<path d="M88,360h-8c-4.418,0-8,3.582-8,8s3.582,8,8,8h8c4.418,0,8-3.582,8-8S92.418,360,88,360z"></path>
	</g>
</g>
<g>
	<g>
		<path d="M128,360h-8c-4.418,0-8,3.582-8,8s3.582,8,8,8h8c4.418,0,8-3.582,8-8S132.418,360,128,360z"></path>
	</g>
</g>
<g>
	<g>
		<path d="M168,360h-8c-4.418,0-8,3.582-8,8s3.582,8,8,8h8c4.418,0,8-3.582,8-8S172.418,360,168,360z"></path>
	</g>
</g>
<g>
	<g>
		<path d="M88,392h-8c-4.418,0-8,3.582-8,8s3.582,8,8,8h8c4.418,0,8-3.582,8-8S92.418,392,88,392z"></path>
	</g>
</g>
<g>
	<g>
		<path d="M128,392h-8c-4.418,0-8,3.582-8,8s3.582,8,8,8h8c4.418,0,8-3.582,8-8S132.418,392,128,392z"></path>
	</g>
</g>
<g>
	<g>
		<path d="M168,392h-8c-4.418,0-8,3.582-8,8s3.582,8,8,8h8c4.418,0,8-3.582,8-8S172.418,392,168,392z"></path>
	</g>
</g>
<g>
	<g>
		<path d="M208,264h-8c-4.418,0-8,3.582-8,8s3.582,8,8,8h8c4.418,0,8-3.582,8-8S212.418,264,208,264z"></path>
	</g>
</g>
<g>
	<g>
		<path d="M376,408h-8c-4.418,0-8,3.582-8,8s3.582,8,8,8h8c4.418,0,8-3.582,8-8S380.418,408,376,408z"></path>
	</g>
</g>
<g>
	<g>
		<path d="M416,408h-8c-4.418,0-8,3.582-8,8s3.582,8,8,8h8c4.418,0,8-3.582,8-8S420.418,408,416,408z"></path>
	</g>
</g>
<g>
	<g>
		<path d="M456,408h-8c-4.418,0-8,3.582-8,8s3.582,8,8,8h8c4.418,0,8-3.582,8-8S460.418,408,456,408z"></path>
	</g>
</g>
<g>
</g>
<g>
</g>
<g>
</g>
<g>
</g>
<g>
</g>
<g>
</g>
<g>
</g>
<g>
</g>
<g>
</g>
<g>
</g>
<g>
</g>
<g>
</g>
<g>
</g>
<g>
</g>
<g>
</g>
</svg>