<svg xmlns="http://www.w3.org/2000/svg" xmlns:xlink="http://www.w3.org/1999/xlink" x="0px" y="0px" viewBox="0 0 480 480" style="enable-background:new 0 0 480 480;" xml:space="preserve">
<g>
	<g>
		<path d="M408.68,84.456L350.44,61.16l-26.32-10.528C311.941,45.808,303.958,34.019,304,20.92V8c0-4.418-3.582-8-8-8s-8,3.582-8,8    v12.92c0.015,8.749,2.427,17.326,6.976,24.8L240,100.688l-54.976-54.976c4.547-7.471,6.96-16.046,6.976-24.792V8    c0-4.418-3.582-8-8-8s-8,3.582-8,8v12.92c0.042,13.099-7.941,24.888-20.12,29.712l-26.28,10.52L71.368,84.448    C37.859,97.705,15.889,130.132,16,166.168V328H8c-4.418,0-8,3.582-8,8v48c0,4.418,3.582,8,8,8h8v80c0,4.418,3.582,8,8,8    s8-3.582,8-8v-80h16c4.418,0,8-3.582,8-8s-3.582-8-8-8H16v-32h72v32h-8c-4.418,0-8,3.582-8,8s3.582,8,8,8h8v80    c0,4.418,3.582,8,8,8s8-3.582,8-8V192c0-4.418-3.582-8-8-8s-8,3.582-8,8v136H32V166.168    c-0.095-29.473,17.864-55.999,45.264-66.856l53.384-21.352l54.864,54.84c7.781,7.801,19.88,9.29,29.32,3.608L232,126.128V232    c0,4.418,3.582,8,8,8s8-3.582,8-8V126.128l17.168,10.304c9.44,5.682,21.539,4.193,29.32-3.608l54.864-54.864l53.384,21.352    c27.4,10.857,45.359,37.383,45.264,66.856V192c0,4.418,3.582,8,8,8s8-3.582,8-8v-25.832    C464.116,130.147,442.167,97.727,408.68,84.456z M206.592,122.704c-3.146,1.887-7.172,1.392-9.768-1.2l-50.016-50.016l15.024-6    c4.635-1.847,8.953-4.406,12.8-7.584l52.464,52.496L206.592,122.704z M283.2,121.512c-2.596,2.592-6.622,3.087-9.768,1.2    L252.904,110.4l52.504-52.504c3.836,3.171,8.141,5.73,12.76,7.584l15.024,6.016L283.2,121.512z"></path>
	</g>
</g>
<g>
	<g>
		<path d="M344,296H136c-4.418,0-8,3.582-8,8v48c0,4.418,3.582,8,8,8h8v112c0,4.418,3.582,8,8,8h176c4.418,0,8-3.582,8-8v-48    c0-4.418-3.582-8-8-8s-8,3.582-8,8v40H160V360h48v48c0,4.418,3.582,8,8,8h48c4.418,0,8-3.582,8-8v-48h48v32c0,4.418,3.582,8,8,8    s8-3.582,8-8v-32h8c4.418,0,8-3.582,8-8v-48C352,299.582,348.418,296,344,296z M208,344h-56h-8v-32h64V344z M256,400h-32v-40h32    V400z M256,344h-32v-32h32V344z M336,344h-64v-32h64V344z"></path>
	</g>
</g>
<g>
	<g>
		<path d="M240,256c-4.418,0-8,3.582-8,8v8c0,4.418,3.582,8,8,8s8-3.582,8-8v-8C248,259.582,244.418,256,240,256z"></path>
	</g>
</g>
<g>
	<g>
		<path d="M472,328h-8V224c0-4.418-3.582-8-8-8s-8,3.582-8,8v104h-56V192c0-4.418-3.582-8-8-8s-8,3.582-8,8v280c0,4.418,3.582,8,8,8    s8-3.582,8-8v-80h8c4.418,0,8-3.582,8-8s-3.582-8-8-8h-8v-32h72v32h-32c-4.418,0-8,3.582-8,8s3.582,8,8,8h16v80    c0,4.418,3.582,8,8,8s8-3.582,8-8v-80h8c4.418,0,8-3.582,8-8v-48C480,331.582,476.418,328,472,328z"></path>
	</g>
</g>
<g>
</g>
<g>
</g>
<g>
</g>
<g>
</g>
<g>
</g>
<g>
</g>
<g>
</g>
<g>
</g>
<g>
</g>
<g>
</g>
<g>
</g>
<g>
</g>
<g>
</g>
<g>
</g>
<g>
</g>
</svg>