<svg xmlns="http://www.w3.org/2000/svg" xmlns:xlink="http://www.w3.org/1999/xlink" x="0px" y="0px" viewBox="0 0 480 480" style="enable-background:new 0 0 480 480;" xml:space="preserve">
<g>
	<g>
		<path d="M269.656,96.62c-16.39-16.35-42.922-16.35-59.312,0c-3.069,3.178-2.981,8.243,0.197,11.312    c3.1,2.994,8.015,2.994,11.115,0c10.139-10.113,26.549-10.113,36.688,0c1.5,1.5,3.534,2.344,5.656,2.344    c4.418-0.001,7.999-3.583,7.998-8.002C271.998,100.154,271.155,98.12,269.656,96.62z"></path>
	</g>
</g>
<g>
	<g>
		<path d="M240,318.276c-4.418,0-8,3.582-8,8v56c0,4.418,3.582,8,8,8s8-3.582,8-8v-56C248,321.858,244.418,318.276,240,318.276z"></path>
	</g>
</g>
<g>
	<g>
		<path d="M144,214.276c-4.418,0-8,3.582-8,8v48c0,4.418,3.582,8,8,8s8-3.582,8-8v-48C152,217.858,148.418,214.276,144,214.276z"></path>
	</g>
</g>
<g>
	<g>
		<path d="M104,230.276c-4.418,0-8,3.582-8,8v64c0,4.418,3.582,8,8,8s8-3.582,8-8v-64C112,233.858,108.418,230.276,104,230.276z"></path>
	</g>
</g>
<g>
	<g>
		<path d="M104,326.276c-4.418,0-8,3.582-8,8v8c0,4.418,3.582,8,8,8s8-3.582,8-8v-8C112,329.858,108.418,326.276,104,326.276z"></path>
	</g>
</g>
<g>
	<g>
		<path d="M336,214.276c-4.418,0-8,3.582-8,8v48c0,4.418,3.582,8,8,8s8-3.582,8-8v-48C344,217.858,340.418,214.276,336,214.276z"></path>
	</g>
</g>
<g>
	<g>
		<path d="M336,294.276c-4.418,0-8,3.582-8,8v8c0,4.418,3.582,8,8,8s8-3.582,8-8v-8C344,297.858,340.418,294.276,336,294.276z"></path>
	</g>
</g>
<g>
	<g>
		<path d="M376,230.276c-4.418,0-8,3.582-8,8v96c0,4.418,3.582,8,8,8s8-3.582,8-8v-96C384,233.858,380.418,230.276,376,230.276z"></path>
	</g>
</g>
<g>
	<g>
		<path d="M474.104,214.556L408,196.532v-22.256c0-17.673-14.327-32-32-32c-17.673,0-32,14.327-32,32v4.8l-45.6-12.448l2.4-44.8    c0.36-6.734,0.28-13.484-0.24-20.208c-0.345-4.405-4.195-7.697-8.6-7.352s-7.697,4.195-7.352,8.6    c0.457,6.032,0.522,12.088,0.192,18.128l-12.728,235.776l-21.84,65.504h-20.464l-21.84-65.504L195.2,121.58    c-2.035-36.229,10.254-71.806,34.216-99.056c5.199-5.848,14.154-6.374,20.002-1.174c0.558,0.496,1.077,1.036,1.55,1.614    c14.367,16.45,24.629,36.072,29.944,57.256c1.105,4.278,5.468,6.85,9.746,5.746c4.234-1.093,6.806-5.384,5.774-9.634    c-6.005-23.826-17.594-45.882-33.808-64.344C256.918,5.462,248.669,1.72,240,1.724c-8.671-0.003-16.921,3.739-22.632,10.264    C190.663,42.381,176.97,82.05,179.24,122.444l2.4,44.184L136,179.076v-4.8c0-17.673-14.327-32-32-32s-32,14.327-32,32v22.256    L5.896,214.556c-3.482,0.949-5.897,4.111-5.896,7.72v48c0,4.418,3.582,8,8,8c0.229,0.012,0.459,0.012,0.688,0l56-4.872    c4.383-0.555,7.486-4.559,6.931-8.942c-0.524-4.138-4.14-7.179-8.307-6.986L48,258.764V219.66l134.512-36.688l3.448,63.8    l-10.648,0.928c-4.418,0.188-7.848,3.922-7.66,8.34c0.188,4.418,3.922,7.848,8.34,7.66c0.232,0.012,0.464,0.012,0.696,0    l10.136-0.88l4.904,90.656l-43.304,21.648c-2.71,1.354-4.422,4.123-4.424,7.152v24c0,4.418,3.582,8,8,8s8-3.582,8-8V387.22    l35.328-17.664l12.24,36.72H184c-4.418,0-8,3.582-8,8s3.582,8,8,8h28.896l3.512,10.528c1.089,3.268,4.147,5.473,7.592,5.472h32    c3.445,0.001,6.503-2.204,7.592-5.472l3.512-10.528H304c4.418,0,8-3.582,8-8s-3.582-8-8-8h-31.568l12.24-36.72L320,387.22v43.056    c0,4.418,3.582,8,8,8s8-3.582,8-8v-48c0.017-3.047-1.699-5.838-4.424-7.2l-43.304-21.6l4.904-90.712l10.136,0.88    c0.232,0.012,0.464,0.012,0.696,0c4.418,0.188,8.152-3.242,8.34-7.66c0.188-4.418-3.242-8.152-7.66-8.34l-10.648-0.928l3.448-63.8    L432,219.66v39.104l-15.312-1.288c-4.391-0.487-8.346,2.679-8.832,7.07c-0.487,4.391,2.679,8.346,7.07,8.833    c0.128,0.014,0.257,0.025,0.386,0.033l56,4.872c0.229,0.01,0.459,0.007,0.688-0.008c4.418,0,8-3.582,8-8v-48    C480.001,218.667,477.586,215.505,474.104,214.556z M32,260.156l-16,1.392v-33.16l16-4.368V260.156z M88,192.164v-17.888    c0-8.837,7.163-16,16-16s16,7.163,16,16v8c0.046,0.373,0.121,0.742,0.224,1.104L88,192.164z M392,192.164l-32.224-8.8    c0.102-0.356,0.177-0.72,0.224-1.088v-8c0-8.837,7.163-16,16-16s16,7.163,16,16V192.164z M464,261.548l-16-1.392V224.02l16,4.368    V261.548z"></path>
	</g>
</g>
<g>
	<g>
		<path d="M328,454.276c-4.418,0-8,3.582-8,8v8c0,4.418,3.582,8,8,8s8-3.582,8-8v-8C336,457.858,332.418,454.276,328,454.276z"></path>
	</g>
</g>
<g>
	<g>
		<path d="M152,430.276c-4.418,0-8,3.582-8,8v8c0,4.418,3.582,8,8,8s8-3.582,8-8v-8C160,433.858,156.418,430.276,152,430.276z"></path>
	</g>
</g>
<g>
</g>
<g>
</g>
<g>
</g>
<g>
</g>
<g>
</g>
<g>
</g>
<g>
</g>
<g>
</g>
<g>
</g>
<g>
</g>
<g>
</g>
<g>
</g>
<g>
</g>
<g>
</g>
<g>
</g>
</svg>